<svg version="1.1" id="Capa_1" xmlns="http://www.w3.org/2000/svg" x="0" y="0" viewBox="0 0 2834.6 570.6" xml:space="preserve"><style>.st1{fill:#00d264}</style><path d="M202.7 336.6c2.1-.9 4.2-1.9 6.3-2.8.8-.4 1.5-.8 2.3-1.1 1.2-.6 2.3-1.1 3.4-1.7 1.2-.6 2.5-1.3 3.7-2 .6-.3 1.2-.7 1.7-1 20.8-11.8 39.1-27.9 53.4-47.1 16.8-22.7 28-50 31.3-78.2 3.2-27.6-.7-56.8-13.5-81.5-9.2-17.6-23.4-33.4-41.1-42.7-9.8-5.1-20.9-8.5-32.1-9.6-20.5-2.3-41.1 3.1-56.4 19.3-6.8 7.2-11.9 16.6-14.6 27.9l-.1.4-.2 1.1-.2 1.1-.2 1.1-.2 1.1-.2 1.1c-.1.5-.2 1.1-.2 1.6l-.3 3c-.1 1-.1 2-.2 3v1.1c1.1-27.2 23.5-48.9 51-48.9 28.2 0 51 22.8 51 51 0 7.6-1.7 14.8-4.6 21.3l-.4 1.1c-10.1 27.8-34.8 55.1-64.8 66.6-10 3.8-20.7 6-31.6 6.1-1.9 0-3.9-.1-5.9-.2-.9 0-1.7-.1-2.6-.2-1.5-.1-2.9-.3-4.4-.4-1.1-.1-2.2-.3-3.3-.5l-3.9-.6c-.7-.1-1.5-.3-2.2-.4-2-.4-4-.9-6-1.4l-.8-.2c-28-7.6-54.5-25.7-73-48.5-.4-.5-.8-1-1.2-1.4-.6-.8-1.2-1.5-1.8-2.3-.6-.8-1.1-1.5-1.7-2.3-.4-.6-.9-1.2-1.3-1.8-.5-.7-1-1.5-1.5-2.2-.5-.8-1.1-1.6-1.6-2.5-.3-.5-.7-1.1-1-1.6-.7-1.2-1.5-2.4-2.2-3.7l-.5-.8-.1-.1c-.3-.6-.6-1.1-.9-1.7-.6-1.1-1.2-2.2-1.7-3.3-.4-.9-.9-1.8-1.3-2.7l-.3-.6c-.5-1.2-1-2.5-1.5-3.7l-.1-.2c.7 95.4 111.8 185.2 171.5 194.7 1.9-.7 3.8-1.4 5.7-2.2l.4-.5z" fill="#00965a"/><path class="st1" d="m26.7 148.4.3.6c.4.9.9 1.8 1.3 2.7.6 1.1 1.1 2.2 1.7 3.3.3.6.6 1.1.9 1.7l.1.1.5.8c.7 1.2 1.4 2.5 2.2 3.7.3.5.7 1.1 1 1.6.5.8 1.1 1.7 1.6 2.5s1 1.5 1.5 2.2c.4.6.9 1.2 1.3 1.8.5.8 1.1 1.5 1.7 2.3.6.8 1.2 1.5 1.8 2.3l1.2 1.5c18.5 22.8 44.9 40.8 73 48.5l.8.2c2 .5 4 1 6 1.4.7.2 1.5.3 2.2.4 1.3.2 2.6.5 3.9.6 1.1.2 2.2.3 3.3.5 1.5.2 2.9.3 4.4.5.9.1 1.7.1 2.6.2 1.9.1 3.9.2 5.8.2 10.9-.1 21.6-2.2 31.6-6.1 30-11.5 54.6-38.8 64.8-66.6l.4-1.1c-8.1 17.6-25.8 29.7-46.4 29.7-18.8 0-35.2-10.2-44.1-25.3l-.6-1c-4-7.3-6.3-15.7-6.3-24.7v-4.8c0-1 .1-2.2.2-3.2 0-1 .1-1.9.2-2.9.7-7.2 2.4-14.6 4.6-21.5 3.3-10.4 8.2-20.3 14.3-29.3 6-8.9 13.3-17 21.4-24.1 3.9-3.4 7.5-6.2 10.6-8.4-16.7-11.4-36.9-18.1-58.7-18.1-17.4 0-33.2 3.6-47.2 10.1l-.4.2-1.8.9c-2.3 1.2-4.6 2.4-6.8 3.7-1.1.7-2.2 1.3-3.3 2l-.3.1-.1.1C65.6 45.6 55.2 56 47 68.2c-3.7 5.4-6.9 11.2-9.7 17.4-2 4.3-3.7 8.8-5.2 13.4l-.1.2-.2.5-.2.7-.1.2-.6 2.1-.3 1.2c-.7 2.3-1.3 4.7-1.8 7.1-.3 1.1-.5 2.2-.7 3.4l-.2 1c-.2 1-.4 2.1-.6 3.1l-.1.4-.2 1c-1.3 7.7-1.9 15.7-1.9 23.8v.9l.1.2c.5 1.1.9 2.3 1.5 3.6"/><path d="M255.3 20.6c-21.8 0-42 6.7-58.7 18.1-3.1 2.2-6.8 5-10.6 8.4-8.1 7.1-15.4 15.2-21.4 24.1-6.1 9-11 18.9-14.3 29.3-2.2 6.9-3.9 14.3-4.6 21.5-.1 1-.1 1.9-.2 2.9 0 1-.1 2.2-.2 3.2v4.8c0 8.9 2.3 17.3 6.3 24.7l.6 1c8.9 15.1 25.3 25.3 44.1 25.3 20.6 0 38.3-12.2 46.4-29.7 3-6.5 4.6-13.7 4.6-21.3 0-28.2-22.8-51-51-51-27.5 0-49.8 21.7-51 48.9v-1.1c0-1 .1-2 .2-3l.3-3c.1-.5.1-1.1.2-1.6l.2-1.1.2-1.1.2-1.1.2-1.1.2-1.1.1-.4c2.7-11.3 7.8-20.7 14.6-27.9C177 72 197.6 66.6 218.1 68.9c11.3 1.1 22.3 4.5 32.1 9.6 17.7 9.3 31.9 25 41.1 42.7 12.8 24.7 16.7 53.9 13.5 81.5-3.2 28.2-14.4 55.5-31.3 78.2-14.2 19.2-32.6 35.4-53.4 47.1-.6.3-1.2.6-1.7 1-1.2.7-2.4 1.3-3.7 2-1.1.6-2.3 1.2-3.4 1.7-.8.4-1.5.8-2.3 1.1-2.1 1-4.2 1.9-6.3 2.8l-.5.2c-1.9.8-3.8 1.5-5.7 2.2l.6-.1.4-.1h.6l.8-.2h.2l1-.2h.2l.9-.2h.1l1-.2h.4l.3-.1.6-.1h.1l1-.3h.3l1-.3h.1l.2-.1 1-.3h.1l1.1-.3.2-.1.5-.1.5-.1.1-.1h.2l.2-.1.3-.1.5-.1h.1l1.1-.4.4-.1.9-.3.3-.1.8-.3.2-.1h.1l.9-.3.4-.2.6-.2c.5-.2 1-.4 1.4-.6l.3-.1.2-.1.5-.2.7-.3.1-.1 1.1-.4.2-.1h.1l1.1-.4h.2l.9-.4.4-.2.3-.1 1-.5.1-.1 1.2-.5.1-.1c1-.5 2.1-.9 3.1-1.4l.2-.1.8-.4h.1c1.1-.5 2.1-1 3.2-1.6l.8-.4.6-.3.5-.3.7-.3.5-.3.9-.5 1-.5.1-.1h.1l.2-.1c1.8-1 3.7-2 5.6-3.1l.2-.1c1.2-.7 2.4-1.4 3.7-2.2l.2-.1.1-.1.2-.1c.6-.4 1.3-.8 1.9-1.2l.5-.3h.1l.5-.3.2-.1c1.3-.8 2.5-1.6 3.8-2.4l.2-.2.9-.6c1.9-1.3 3.9-2.6 5.8-3.9l3-2.1h.1l.1-.1c.9-.6 1.8-1.3 2.7-1.9l.2-.1c2.8-2 5.5-4.1 8.2-6.3 5.7-4.5 11.3-9.3 16.7-14.3l.2-.2c39.8-36.7 72.9-87.2 72.9-139.4.5-68.6-44.3-123.6-112.2-123.6m2441.3 276.2c-21.1 0-37.3-13-37.3-39.7 0-29.6 19.8-47.8 49.4-47.8 6.5 0 13.4 1.2 17.4 2v77.3c-7.6 4.5-19.3 8.2-29.5 8.2M2644 184.6c15 0 27.1-12.1 27.1-27.5 0-15-12.2-27.1-27.1-27.1-15.4 0-27.5 12.2-27.5 27.1 0 15.4 12.1 27.5 27.5 27.5m130.8-17c0-38.9-22.3-62-67.6-62-25.1 0-44.1 7.7-53.9 16.2 5.3-1.2 15.4-2 23.1-2 35.6 0 49.8 20.2 49.8 54.3V200c-89.1 6.1-116.6 37.7-116.6 70.9s25.9 51 53.9 51c26.3 0 49.8-15.8 62.8-29.2 2.4 18.2 14.2 28.3 31.6 28.3 17.4 0 44.9-10.9 51.8-16.2v-1.6c-21.5-2.4-34.8-5.7-34.8-37.7v-97.9zm-205.7 7.7c0-51-26.3-69.6-57.5-69.6-29.6 0-62 21.9-74.1 34-8.1-21.1-24.7-34-51.8-34-28.8 0-57.5 19.8-69.6 32v-32h-1.6c-21.1 6.9-49.8 14.6-77.7 17v1.6c25.9 8.9 30.8 15.8 30.8 51.4v89.5c0 31.6-4.1 41.3-26.3 50.2v1.6h101.6v-1.6c-21.9-8.9-26.3-18.6-26.3-50.2V142.1c10.9-5.3 25.5-10.5 40.1-10.5 22.3 0 38.1 13 38.1 42.5v90.3c0 32-4.1 42.1-26.3 51v1.6h101.6v-1.6c-22.3-8.9-26.7-19-26.7-51v-89.1c0-11.7-1.6-22.7-4.5-32 10.5-5.7 27.9-11.7 42.1-11.7 22.7 0 39.3 13 39.3 42.5v90.3c0 32-4.1 42.1-26.3 51v1.6h101.6v-1.6c-22.3-8.9-26.3-19-26.3-51v-89.1zm-373.7-13c15.8 0 28.3-12.1 28.3-28.3 0-15.8-12.6-28.3-28.3-28.3-16.2 0-27.9 12.6-27.9 28.3-.1 16.2 11.7 28.3 27.9 28.3M2182 317v-1.6c-27.5-8.9-32.4-18.6-32.4-51V105.6h-1.6c-21.5 7.3-50.2 16.2-78.1 18.2v1.6c26.7 9.3 30.8 17 30.8 52.6v86.2c0 32.4-4.1 42.1-26.3 51v1.6H2182zm-228.8-20.2c-21.1 0-37.3-13-37.3-39.7 0-29.6 19.8-47.8 49.4-47.8 6.5 0 13.4 1.2 17.4 2v77.3c-7.6 4.5-19.3 8.2-29.5 8.2m-52.6-112.2c15 0 27.1-12.1 27.1-27.5 0-15-12.2-27.1-27.1-27.1-15.4 0-27.5 12.2-27.5 27.1 0 15.4 12.1 27.5 27.5 27.5m130.8-17c0-38.9-22.3-62-67.6-62-25.1 0-44.1 7.7-53.9 16.2 5.3-1.2 15.4-2 23.1-2 35.6 0 49.8 20.2 49.8 54.3V200c-89.1 6.1-116.6 37.7-116.6 70.9s25.9 51 53.9 51c26.3 0 49.8-15.8 62.8-29.2 2.4 18.2 14.2 28.3 31.6 28.3 17.4 0 44.9-10.9 51.8-16.2v-1.6c-21.5-2.4-34.8-5.7-34.8-37.7v-97.9zM1782 317v-1.6c-32-9.3-39.3-20.3-39.3-54.3v-78.6h49c26.3 0 36 7.3 50.2 29.2h2V140h-2c-14.2 22.3-23.5 30-50.2 30h-49V50.2h53.9c31.6 0 38.1 11.7 62.4 52.6h2V37.6h-202v1.6c27.1 9.3 32.4 20.7 32.4 53.4V261c0 34-5.3 44.9-32.4 54.3v1.6h123zm-249.5-5.3c-39.7 0-53-49.8-53-98.4 0-53.9 17.4-97.6 53-97.6 35.2 0 52.6 43.7 52.6 97.6.1 48.6-13.3 98.4-52.6 98.4m0 10.2c59.1 0 106.5-47.4 106.5-108.5 0-63.6-49.4-107.7-106.5-107.7-57.5 0-106.5 44.1-106.5 107.7 0 61.1 47 108.5 106.5 108.5m-144.9-146.6c0-51-26.3-69.6-57.5-69.6-29.6 0-61.9 21.9-74.1 34-8.1-21.1-24.7-34-51.8-34-28.7 0-57.5 19.8-69.6 32v-32h-1.6c-21.1 6.9-49.8 14.6-77.7 17v1.6c25.9 8.9 30.8 15.8 30.8 51.4v89.5c0 31.6-4.1 41.3-26.3 50.2v1.6h101.6v-1.6c-21.9-8.9-26.3-18.6-26.3-50.2V142.1c10.9-5.3 25.5-10.5 40.1-10.5 22.3 0 38.1 13 38.1 42.5v90.3c0 32-4.1 42.1-26.3 51v1.6h101.6v-1.6c-22.3-8.9-26.7-19-26.7-51v-89.1c0-11.7-1.6-22.7-4.5-32 10.5-5.7 27.9-11.7 42.1-11.7 22.7 0 39.3 13 39.3 42.5v90.3c0 32-4.1 42.1-26.3 51v1.6h101.6v-1.6c-22.3-8.9-26.3-19-26.3-51v-89.1zM937.7 311.7c-39.7 0-53-49.8-53-98.4 0-53.9 17.4-97.6 53-97.6 35.2 0 52.6 43.7 52.6 97.6.1 48.6-13.3 98.4-52.6 98.4m0 10.2c59.1 0 106.5-47.4 106.5-108.5 0-63.6-49.4-107.7-106.5-107.7-57.5 0-106.5 44.1-106.5 107.7 0 61.1 47 108.5 106.5 108.5M804.9 162.3c15.8 0 28.3-12.1 28.3-28.3 0-15.8-12.6-28.3-28.3-28.3-16.2 0-27.9 12.6-27.9 28.3 0 16.2 11.7 28.3 27.9 28.3M791.5 317v-1.6c-27.5-8.9-32.4-18.6-32.4-51V105.6h-1.6c-21.5 7.3-50.2 16.2-78.1 18.2v1.6c26.7 9.3 30.8 17 30.8 52.6v86.2c0 32.4-4.1 42.1-26.3 51v1.6h107.6zm-270-266.8h36.4c40.9 0 57.1 30 57.1 63.2 0 36.4-18.6 69.2-61.6 69.2h-32V50.2zM560.7 317v-1.6c-32-9.3-39.3-20.3-39.3-54.3v-66h42.1c59.9 0 103.7-24.3 103.7-81.8 0-49.8-30.8-75.7-99.2-75.7H437.7v1.6c27.1 9.3 32.4 19.4 32.4 53.4V261c0 34-5.3 44.9-32.4 54.3v1.6h123z" style="fill:#00463d"/><path class="st1" d="M1557.6 477.2c-1.1-35.1-55.9-24.2-55.9-43.8 0-6.5 5.6-10.9 16.4-10.9 10.9 0 17.5 5.8 18.2 14.3h20.1c-1.1-19.4-15.5-31.2-37.6-31.2-22.9 0-37.4 12.5-37.4 28.1 0 35.6 56.5 24.7 56.5 43.8 0 6.7-6.2 11.6-17.8 11.6-11.1 0-18.7-6.5-19.4-14.5h-20.8c.9 17.6 17.3 31.4 40.6 31.4 22.8-.1 37.1-12.4 37.1-28.8m-105.3-83c7.1 0 12.7-5.6 12.7-12.9s-5.6-12.9-12.7-12.9c-7.2 0-12.9 5.6-12.9 12.9s5.6 12.9 12.9 12.9M1442 504.3h20.1v-97.2H1442v97.2zm-44.1-51.1c0-20.7 9.2-26.8 24-26.8h5.1v-20.8c-13.8 0-23.5 6-29.1 15.7v-14.1h-20.1v97.2h20.1v-51.2zm-64.2 0c0-20.7 9.2-26.8 24-26.8h5.1v-20.8c-13.8 0-23.5 6-29.1 15.7v-14.1h-20.1v97.2h20.1v-51.2zm-115.2 2.4c0-22.1 13.6-32.6 28.8-32.6 15 0 29.3 10.6 29.3 32.6s-14.8 32.8-29.8 32.8c-15.3.1-28.3-10.7-28.3-32.8m78.7 0c0-30.5-21.9-50.1-49.6-50.1-27.7 0-49.6 19.6-49.6 50.1s21 50.3 48.7 50.3c27.9 0 50.5-19.7 50.5-50.3m-244.8 48.7h20.1v-84l37.6 84h13.9l37.4-84v84h20.1V381.7H1160l-42.9 96.2-43.1-96.2h-21.7v122.6zm-109-48.7c0 30.5 19.8 50.3 47.6 50.3 23.8 0 39.4-13.2 44.8-32.3h-21.7c-3.7 10.1-11.1 15.3-23.1 15.3-16.2 0-27-12-27-33.3 0-21.2 10.8-33.2 27-33.2 12 0 19.8 6 23.1 15.4h21.7c-5.5-20.5-21-32.3-44.8-32.3-27.9 0-47.6 19.8-47.6 50.1m-88.4 0c0-22.1 13.6-32.6 28.8-32.6 15 0 29.3 10.6 29.3 32.6s-14.8 32.8-29.8 32.8c-15.3.1-28.3-10.7-28.3-32.8m78.7 0c0-30.5-21.9-50.1-49.6-50.1s-49.6 19.6-49.6 50.1 21 50.3 48.7 50.3c27.9 0 50.5-19.7 50.5-50.3m-194.1 32.3v-89.8h19.9c28.9 0 44.5 17.3 44.5 45.4 0 27.9-15.5 44.5-44.5 44.5h-19.9zm19.9-106.2h-40.1v122.6h40.1c39.4 0 65.1-23.1 65.1-60.9 0-37.9-25.8-61.7-65.1-61.7m-143.3 99.5-27.4-74.1h-22.4l38.3 95.6-19.7 47.4h20.8l59.6-142.9h-20.8l-28.4 74zm-56.6-9.8c0-14.6-10.6-27.7-23.6-30 11.8-4.2 20.8-13.2 20.8-28.1 0-17.3-13.8-31.6-39.7-31.6h-46.8v122.6h49.1c25 0 40.2-14.2 40.2-32.9m-23.3-55.6c0 11.3-7.9 17.5-21 17.5h-24.9v-35.1h24.9c13-.1 21 6.4 21 17.6m3.1 53.4c0 11.8-8.3 18.7-21.9 18.7h-27.2v-38.3h26.5c13.5 0 22.6 7.5 22.6 19.6"/></svg>